

<svg xmlns="http://www.w3.org/2000/svg" xmlns:xlink="http://www.w3.org/1999/xlink" style="margin:auto;background:#E2E0D3;display:block;z-index:1;position:relative" width="706" height="723" preserveAspectRatio="xMidYMid" viewBox="0 0 906 723">
<g transform="translate(453,361.5) scale(1,1) translate(-453,-361.5)"><linearGradient id="lg-0.9278415959463715" x1="0" x2="1" y1="0" y2="0">
  <stop stop-color="#d3954c" offset="0"></stop>
  <stop stop-color="#b57931" offset="1"></stop>
</linearGradient><path d="M 726 362 C 726 446 600 542 520 568 C 440 594 254 610 205 542 C 156 474 194 277 243 209 C 292 141 445 114 525 140 C 605 166 726 278 726 362" fill="url(#lg-0.9278415959463715)" opacity="0.63">
  <animate attributeName="d" dur="100s" repeatCount="indefinite" keyTimes="0;0.3333333333333333;0.6666666666666666;1" calcmod="spline" keySplines="0.3 0.1 0.7 0.9;0.3 0.1 0.7 0.9;0.3 0.1 0.7 0.9" begin="-40s" values="M 726 362 C 726 446 600 542 520 568 C 440 594 254 610 205 542 C 156 474 194 277 243 209 C 292 141 445 114 525 140 C 605 166 726 278 726 362;M 846 362 C 846 467 632 572 532 605 C 432 638 209 668 147 583 C 85 498 93 230 155 145 C 217 60 430 91 530 123 C 630 155 846 257 846 362;M 850 362 C 850 469 650 624 549 657 C 448 690 222 661 159 575 C 96 489 137 263 200 177 C 263 91 425 105 526 138 C 627 171 850 255 850 362;M 726 362 C 726 446 600 542 520 568 C 440 594 254 610 205 542 C 156 474 194 277 243 209 C 292 141 445 114 525 140 C 605 166 726 278 726 362"></animate>
</path><path d="M 903 362 C 903 481 659 612 546 649 C 433 686 196 695 126 599 C 56 503 25 198 95 102 C 165 6 442 10 555 47 C 668 84 903 243 903 362" fill="url(#lg-0.9278415959463715)" opacity="0.63">
  <animate attributeName="d" dur="100s" repeatCount="indefinite" keyTimes="0;0.3333333333333333;0.6666666666666666;1" calcmod="spline" keySplines="0.3 0.1 0.7 0.9;0.3 0.1 0.7 0.9;0.3 0.1 0.7 0.9" begin="-40s" values="M 903 362 C 903 481 659 612 546 649 C 433 686 196 695 126 599 C 56 503 25 198 95 102 C 165 6 442 10 555 47 C 668 84 903 243 903 362;M 747 362 C 747 444 602 553 524 579 C 446 605 284 586 236 519 C 188 452 175 262 223 195 C 271 128 436 149 514 174 C 592 199 747 280 747 362;M 943 362 C 943 485 659 599 542 637 C 425 675 215 686 143 586 C 71 486 35 210 107 110 C 179 10 420 65 537 103 C 654 141 943 239 943 362;M 903 362 C 903 481 659 612 546 649 C 433 686 196 695 126 599 C 56 503 25 198 95 102 C 165 6 442 10 555 47 C 668 84 903 243 903 362"></animate>
</path><path d="M 746 362 C 746 454 608 541 520 569 C 432 597 287 596 233 522 C 179 448 160 263 214 188 C 268 113 428 139 516 168 C 604 197 746 270 746 362" fill="url(#lg-0.9278415959463715)" opacity="0.63">
  <animate attributeName="d" dur="100s" repeatCount="indefinite" keyTimes="0;0.3333333333333333;0.6666666666666666;1" calcmod="spline" keySplines="0.3 0.1 0.7 0.9;0.3 0.1 0.7 0.9;0.3 0.1 0.7 0.9" begin="-40s" values="M 746 362 C 746 454 608 541 520 569 C 432 597 287 596 233 522 C 179 448 160 263 214 188 C 268 113 428 139 516 168 C 604 197 746 270 746 362;M 854 362 C 854 477 659 626 550 661 C 441 696 236 661 169 568 C 102 475 69 224 136 131 C 203 38 446 13 555 48 C 664 83 854 247 854 362;M 841 362 C 841 460 625 576 532 606 C 439 636 282 607 224 528 C 166 449 120 241 178 162 C 236 83 449 58 542 88 C 635 118 841 264 841 362;M 746 362 C 746 454 608 541 520 569 C 432 597 287 596 233 522 C 179 448 160 263 214 188 C 268 113 428 139 516 168 C 604 197 746 270 746 362"></animate>
</path><path d="M 888 362 C 888 489 679 649 559 688 C 439 727 184 713 110 610 C 36 507 22 204 96 102 C 170 0 419 57 539 96 C 659 135 888 235 888 362" fill="url(#lg-0.9278415959463715)" opacity="0.63">
  <animate attributeName="d" dur="100s" repeatCount="indefinite" keyTimes="0;0.3333333333333333;0.6666666666666666;1" calcmod="spline" keySplines="0.3 0.1 0.7 0.9;0.3 0.1 0.7 0.9;0.3 0.1 0.7 0.9" begin="-40s" values="M 888 362 C 888 489 679 649 559 688 C 439 727 184 713 110 610 C 36 507 22 204 96 102 C 170 0 419 57 539 96 C 659 135 888 235 888 362;M 793 362 C 793 470 632 563 529 596 C 426 629 193 683 130 596 C 67 509 117 250 180 163 C 243 76 424 101 527 134 C 630 167 793 254 793 362;M 766 362 C 766 454 626 594 538 623 C 450 652 258 617 204 542 C 150 467 173 273 227 198 C 281 123 428 139 516 168 C 604 197 766 270 766 362;M 888 362 C 888 489 679 649 559 688 C 439 727 184 713 110 610 C 36 507 22 204 96 102 C 170 0 419 57 539 96 C 659 135 888 235 888 362"></animate>
</path><path d="M 850 362 C 850 489 668 612 547 651 C 426 690 183 714 109 611 C 35 508 63 235 137 132 C 211 29 435 5 556 44 C 677 83 850 235 850 362" fill="url(#lg-0.9278415959463715)" opacity="0.63">
  <animate attributeName="d" dur="100s" repeatCount="indefinite" keyTimes="0;0.3333333333333333;0.6666666666666666;1" calcmod="spline" keySplines="0.3 0.1 0.7 0.9;0.3 0.1 0.7 0.9;0.3 0.1 0.7 0.9" begin="-40s" values="M 850 362 C 850 489 668 612 547 651 C 426 690 183 714 109 611 C 35 508 63 235 137 132 C 211 29 435 5 556 44 C 677 83 850 235 850 362;M 850 362 C 850 481 659 612 546 649 C 433 686 244 660 174 564 C 104 468 78 236 148 140 C 218 44 440 17 553 54 C 666 91 850 243 850 362;M 914 362 C 914 480 646 575 534 611 C 422 647 244 658 175 563 C 106 468 35 203 104 108 C 173 13 423 74 535 110 C 647 146 914 244 914 362;M 850 362 C 850 489 668 612 547 651 C 426 690 183 714 109 611 C 35 508 63 235 137 132 C 211 29 435 5 556 44 C 677 83 850 235 850 362"></animate>
</path></g>
</svg>